PathFileType	4	(X/Y/Z)	 s08c0403.trc
DataRate	CameraRate	NumFrames	NumMarkers	Units	OrigDataRate	OrigDataStartFrame	OrigNumFrames
200	200	4	50	mm	200	501	2000
Frame#	Time	racr			lacr			c7			jug			rlel			rdr			llel			ldr			s2			lic			ric			lasi			rasi			rpsi			lpsi			rgt			lgt			rth1			rth2			rth3			rth4			rlfc			rmfc			rsh1			rsh2			rsh3			rsh4			rlmal			rmmal			rcal			rtoe			rmt5			lth1			lth2			lth4			lth3			llfc			lmfc			llmal			lmmal			lcal			lmt5			lsh1			lsh2			lsh3			lsh4			ltoe			SBIKE			LBIKE			RBIKE			
		X1	Y1	Z1	X2	Y2	Z2	X3	Y3	Z3	X4	Y4	Z4	X5	Y5	Z5	X6	Y6	Z6	X7	Y7	Z7	X8	Y8	Z8	X9	Y9	Z9	X10	Y10	Z10	X11	Y11	Z11	X12	Y12	Z12	X13	Y13	Z13	X14	Y14	Z14	X15	Y15	Z15	X16	Y16	Z16	X17	Y17	Z17	X18	Y18	Z18	X19	Y19	Z19	X20	Y20	Z20	X21	Y21	Z21	X22	Y22	Z22	X23	Y23	Z23	X24	Y24	Z24	X25	Y25	Z25	X26	Y26	Z26	X27	Y27	Z27	X28	Y28	Z28	X29	Y29	Z29	X30	Y30	Z30	X31	Y31	Z31	X32	Y32	Z32	X33	Y33	Z33	X34	Y34	Z34	X35	Y35	Z35	X36	Y36	Z36	X37	Y37	Z37	X38	Y38	Z38	X39	Y39	Z39	X40	Y40	Z40	X41	Y41	Z41	X42	Y42	Z42	X43	Y43	Z43	X44	Y44	Z44	X45	Y45	Z45	X46	Y46	Z46	X47	Y47	Z47	X48	Y48	Z48	X49	Y49	Z49	X50	Y50	Z50	
501	2.5050	731.858250	1362.703907	16.420658	757.280041	1361.665263	-346.584541	730.701292	1442.482323	-154.934346	709.244922	1281.184146	-162.446985	600.347490	1116.948621	119.606715	749.059609	929.440086	-44.954215	623.723403	1147.992854	-497.643588	763.685844	932.942648	-432.837637	173.113714	1232.620559	-230.354239	357.659354	1220.304652	-358.049253	318.271415	1212.275177	-46.857476	361.084263	1160.295124	-319.802821	347.729444	1152.650766	-79.399923	206.366722	1266.884228	-173.955233	215.423407	1274.444857	-269.358645	228.112452	1108.854233	-33.666281	291.162629	1113.455134	-405.433795	305.012920	951.967404	-19.856964	359.103988	881.713744	-21.641918	371.455574	796.356777	-36.497871	393.173716	896.261337	-24.988256	419.022852	687.851581	-49.678881	401.409208	679.286577	-159.405640	357.063390	569.000950	-21.380110	361.524267	481.040200	-39.709989	321.530385	404.696920	-48.901262	390.847908	479.181788	-67.769078	286.456008	290.167057	-59.557054	304.943830	311.714833	-147.746189	206.326952	270.162563	-107.654084	501.905364	225.320957	-99.049335	407.248065	202.190791	-36.149639	374.782116	1012.059060	-404.872711	446.604563	963.123350	-397.651398	471.571351	984.559506	-381.603385	485.070628	882.491489	-397.606313	527.649614	765.221940	-378.785025	510.367961	739.050517	-272.323957	167.655028	561.845335	-400.992894	195.319435	551.301055	-314.251399	115.627271	604.485305	-361.142768	161.248292	393.592004	-415.011859	429.309367	691.988048	-406.059556	373.998206	644.493812	-403.632962	279.328375	616.737419	-401.818615	376.059613	621.474199	-360.767649	223.863258	336.545729	-343.244853	-197.766265	922.939522	-222.535764	-5.925893	83.865955	-426.641075	-8.941114	80.168114	-28.374242	
502	2.5100	732.214633	1365.385883	15.174408	756.378429	1363.994649	-349.087374	729.965840	1445.872420	-157.231261	710.745127	1284.430799	-164.422083	601.457589	1119.067971	117.789080	749.375348	929.198585	-45.067316	623.934046	1148.001088	-498.683344	763.607144	932.905750	-432.848160	173.224122	1230.121295	-229.101812	357.276391	1220.510508	-357.358796	320.357601	1208.993160	-46.305461	361.736908	1160.317397	-319.452442	349.390627	1149.572653	-79.143946	206.781059	1263.847486	-171.675649	214.046956	1272.653992	-268.066536	228.745108	1104.387886	-33.770417	292.273876	1113.249148	-405.239945	302.436179	947.249416	-20.010057	355.203925	875.944852	-21.893039	365.698063	790.543463	-36.500665	389.443465	889.870236	-25.272682	411.151321	681.164511	-50.684345	393.637730	671.488894	-160.072400	350.166808	562.044133	-21.648466	355.001962	474.205074	-39.966634	315.272790	397.747000	-48.940781	384.243453	472.655928	-68.479000	280.574338	283.007499	-59.200135	298.962193	304.404412	-147.662102	200.444304	263.501165	-107.235630	495.850891	217.123275	-99.378896	401.151978	194.449705	-36.284313	377.649133	1013.301746	-405.647090	450.543722	965.876792	-398.535416	475.023402	987.900038	-382.471572	490.631522	886.071478	-398.270611	535.118534	770.491717	-378.810702	518.815968	744.295540	-271.620013	174.574755	569.253332	-400.360667	202.268373	558.436470	-314.056181	122.384223	611.890748	-360.536207	167.675016	401.026514	-414.858643	438.022209	697.854603	-405.697991	381.811601	650.613922	-402.784692	289.595354	627.363022	-407.156341	392.516262	633.027695	-368.693018	230.071180	343.660649	-343.042144	-202.510355	919.920669	-226.099081	-5.920458	83.838651	-426.627505	-8.949911	80.150512	-28.360578	
503	2.5150	732.625473	1368.311628	13.875105	761.627899	1368.269917	-358.523768	729.254874	1449.318698	-159.650111	712.181231	1287.764814	-166.264999	602.616941	1121.293095	115.693516	750.213041	929.490055	-44.997821	623.813683	1148.299654	-500.111605	763.434223	932.896099	-432.840964	173.559320	1228.058354	-226.943297	356.875775	1220.764007	-356.781715	322.533111	1205.900104	-45.736829	362.264648	1160.502842	-319.229192	350.900150	1146.677978	-78.967490	207.399315	1260.589389	-169.605411	213.767821	1270.250208	-266.050230	229.506648	1100.442373	-33.695812	293.019279	1113.144746	-405.426176	299.698951	943.164540	-19.975001	350.864382	870.778549	-22.119968	357.662128	784.984152	-36.440433	385.717533	883.858264	-25.391683	403.078771	674.928857	-51.324583	385.335118	665.056731	-160.178790	342.948095	555.693106	-21.809613	348.001041	467.807278	-40.118832	308.591356	391.142403	-48.850723	377.101044	466.400348	-68.802656	274.348760	276.390957	-58.914700	292.545473	297.537268	-147.476294	194.244669	257.333168	-106.795598	489.364646	209.388667	-99.612156	394.701437	187.080591	-36.454373	379.991676	1014.488378	-406.447387	453.946742	968.602589	-399.124766	477.760233	991.016586	-382.770689	495.656189	889.654025	-399.002882	542.571674	775.690272	-378.427497	526.836853	749.567572	-270.906507	181.201414	576.499584	-399.616555	208.931422	565.381643	-313.804001	128.779392	618.976581	-359.867628	174.515644	408.296275	-414.694578	446.283317	703.534464	-405.103982	389.521721	656.655246	-402.303163	294.755903	630.401025	-400.586755	399.846132	638.967095	-367.977715	236.927724	350.838841	-342.988153	-202.558936	919.827668	-226.096537	-5.920186	83.820859	-426.599994	-8.948718	80.121315	-28.334831	
504	2.5200	733.128409	1371.431725	12.587596	761.060868	1370.621469	-361.437304	728.523478	1452.948373	-162.196433	713.530036	1291.180889	-168.213089	603.763335	1123.748052	113.343422	751.268797	929.770952	-44.324585	623.387651	1148.717397	-501.505308	763.172592	932.974166	-432.789551	174.009031	1225.436934	-224.143387	356.382608	1221.115914	-356.145293	324.837948	1203.230122	-45.265298	362.890007	1160.812721	-318.719061	352.284518	1143.992988	-78.606560	208.109595	1258.243763	-167.512913	214.203900	1267.952059	-262.828987	230.195108	1097.110155	-33.898144	293.669554	1112.957418	-405.100195	296.988911	939.384529	-19.845060	346.415760	866.042156	-22.220195	352.114737	780.078145	-36.959597	381.425742	878.473289	-25.492991	395.062250	669.181624	-51.570205	376.464471	659.220522	-160.225215	335.161001	549.768944	-21.906819	340.569353	461.955670	-40.256546	301.531449	385.084556	-48.769793	370.009509	460.517432	-69.245461	267.706845	270.189599	-58.549164	285.750864	291.189843	-147.310178	187.693670	251.633028	-106.396548	482.619452	201.930781	-99.864575	387.836095	180.182595	-36.520280	381.931211	1015.620609	-406.962699	456.888943	971.324750	-399.230298	479.857018	993.999702	-382.551755	500.293177	893.384535	-399.658222	549.234791	780.948285	-378.413086	534.325074	754.894564	-270.481064	187.570701	583.509811	-399.011211	215.321683	572.207678	-313.667358	134.740261	625.553761	-359.272276	181.774001	415.331261	-414.527478	453.866789	709.185900	-404.570372	388.266591	657.356681	-393.497623	301.946011	635.396599	-396.908776	397.630401	638.462767	-357.195115	244.372915	358.151328	-342.980248	-202.641770	919.725275	-226.232640	-5.915727	83.770534	-426.587196	-8.958166	80.052707	-28.324913	
